<svg height="1024" preserveAspectRatio="none" viewBox="0 0 1024 1024" width="1024" xmlns="http://www.w3.org/2000/svg"><path d="m969.6 351.25q-8.6-20.85-19.4-40.85-6.1-11.35-12.9-22.4-29.35-47.55-71.55-89.8-138.25-138.25-333.8-138.25-195.5 0-333.75 138.25-138.25 138.25-138.25 333.75 0 195.55 138.25 333.8 138.25 138.2 333.75 138.2 195.55 0 333.8-138.2 76.15-76.2 110.35-169.75 27.85-76.25 27.85-164.05 0-67.35-16.4-127.95-1.85-6.85-3.9-13.6-6.15-19.95-14.05-39.15z" fill-opacity=".098039"/><path d="m969.7 392q-1.75-6.85-3.65-13.6-1.52421875-5.28554687-3.2-10.55-2.47128906-7.946875-5.25-15.8-9.75-27.55-23.15-53.65-5.8-11.35-12.3-22.4-30.65-52-76.35-97.75-109-109-253.65-132.05-24.5-3.9-50.05-5.35-14.9-.85-30.1-.85-14.1 0-27.9.75-177.55 9.2-305.85 137.5-138.25 138.25-138.25 333.75 0 195.55 138.25 333.8 84.79003906 84.75703125 191.1 117.55 54.53808594 16.81308594 114.75 19.95.2 0 .4 0 12.15.6 24.5.7 1.5 0 3 0 15.25 0 30.1-.8 3.5-.2 6.95-.45 30.05-2.15 58.7-7.7 11.8-2.3 23.4-5.15 120.6-30.05 214.65-124.1 72.9-72.95 107.35-161.8 27.75-71.6 30.55-153.5.3-9.2.3-18.5 0-1 0-2 0-.5 0-1-.35-61.3-14.3-117z" fill="#4771a6"/><path d="m983.5 535.85-324.5-324.5-255.3 501.45-228.9-24.35 128.2 128.2-59.2.55 153.85 153.85q41.6640625 9.91679688 86.45 12.25.2 0 .4 0 12.15.6 24.5.7 1.5 0 3 0 15.25 0 30.1-.8 3.5-.2 6.95-.45 30.05-2.15 58.7-7.7 11.8-2.3 23.4-5.15 120.6-30.05 214.65-124.1 72.9-72.95 107.35-161.8 26.84335938-69.2609375 30.35-148.15z" fill-opacity=".2"/><path d="m335.8 522.85q-4.25-1.85-8.15-3.85 2.75 40.35-24.05 45.25 1.65 51.95 58.25 82.55 60.8-39.95 61.3-173-60.6-14.9-88.9-79.75.05 62.55 44.45 110.4-28.95-1.25-52.1-19.95-1.4 22.15 9.2 38.35m10.7 15.3q27.2 3.65 46-15.3-18.8 18.95-46 15.3z" fill="#feccb4"/><path d="m228.45 679.7q-19.4 14.8-53.65 8.75 73.95 91.1 182.45 64.35-33.65 48.1-113.45 64.4 143.85 100.5 275.95-35.25 46.85 7.3 65.95-29.75-18.35-2.9-38.35-8.6l29.15-12.25q-31.45-7.65-35.3-42.9 114.3 19.6 64.4-156.4 26.55 6.6 38.35-1.55-49.45-.3-72.05-63.25 41.45 231.85-93.55 233.45 54.3-25.25 46-87.4-111.7 171.05-220.75 50.6 33.95-1.1 58.25-17.1-56.6-30.6-58.25-82.55 26.8-4.9 24.05-45.25-14.5-7.45-25.55-17.6-64.05 111.35-20 214.6-34.25-15.3-53.65-36.3z" fill="#5a8fd2"/><path d="m740.45 335.65q-4.75-13.25-9.1-27.55-17.65-43.7-53.65-79.7-70.45-70.45-170.2-70.45-99.75 0-170.25 70.45-42.95 42.9-59.65 96.75-6.7 21.15-9.2 44-1.6 14.4-1.6 29.5 0 25.45 4.6 49.05 8.05 32.65 30.7 53.7 11.05 10.15 25.55 17.6 3.9 2 8.15 3.85-10.6-16.2-9.2-38.35 23.15 18.7 52.1 19.95-44.4-47.85-44.45-110.4 28.3 64.85 88.9 79.75-.5 133.05-61.3 173-24.3 16-58.25 17.1 109.05 120.45 220.75-50.6 8.3 62.15-46 87.4 135-1.6 93.55-233.45 22.6 62.95 72.05 63.25-11.8 8.15-38.35 1.55 49.9 176-64.4 156.4 3.85 35.25 35.3 42.9l-29.15 12.25q20 5.7 38.35 8.6 176.55 27.85 200.85-203.3 64.7 18.8 102.7-58.25-96.75-9.45-148.8-155m-354.6 43.3q66.75-40.7 52.25-128.4 31.3 83.25 109.55 85-66.85 40.7-52.4 128.4-31.2-83.25-109.4-85z" fill="#fff"/><path d="m547.65 335.55-81 21.7 28.6 106.7q-14.45-87.7 52.4-128.4z" fill="#2c4c6b"/><path d="m438.1 250.55 28.55 106.7 81-21.7q-78.25-1.75-109.55-85z" fill="#3a658f"/><path d="m385.85 378.95 80.8-21.7-28.55-106.7q14.5 87.7-52.25 128.4z" fill="#497fb3"/><path d="m466.65 357.25-80.8 21.7q78.2 1.75 109.4 85z" fill="#3a658e"/><path d="m271.4 447.7q-4.6-23.6-4.6-49.05 0-15.1 1.6-29.5-29.6 108-116.6 129.15 36.55 39.35 81.25 24.55-57.35 99.65-4.6 156.85 19.4 21 53.65 36.3-44.05-103.25 20-214.6-22.65-21.05-30.7-53.7z" fill="#6dadff"/><path d="m346.5 538.15q27.2 3.65 46-15.3" fill="none" stroke="#333" stroke-linecap="round" stroke-linejoin="round" stroke-width="8"/></svg>